<svg width="24" height="24" viewBox="0 0 24 24" fill="none" xmlns="http://www.w3.org/2000/svg">
<g id="Icon / solid/Assets" clip-path="url(#clip0_232_7559)">
<path id="Union" d="M14.2816 12.8334C14.3746 12.7968 14.4617 12.7409 14.5368 12.6658C14.7482 12.4544 14.807 12.1484 14.7134 11.8842L15.0222 12.1931L16.353 13.5238L14.2816 12.8334ZM13.4762 12.6658C13.5405 12.7301 13.6137 12.7804 13.6917 12.8164L13.608 12.9002L13.2725 13.2357C13.2364 13.1576 13.1862 13.0845 13.1218 13.0202L12.4147 12.3131C12.1218 12.0202 11.6469 12.0202 11.354 12.3131C11.0612 12.6059 11.0612 13.0808 11.354 13.3737L12.0612 14.0808C12.1255 14.1452 12.1986 14.1954 12.2767 14.2315L11.8574 14.6507C11.8213 14.5727 11.7711 14.4995 11.7068 14.4352L10.9997 13.7281C10.7068 13.4352 10.2319 13.4352 9.93901 13.7281C9.64612 14.021 9.64612 14.4959 9.93901 14.7887L10.6461 15.4959C10.7105 15.5602 10.7836 15.6104 10.8617 15.6465L10.4424 16.0658C10.4063 15.9877 10.3561 15.9146 10.2917 15.8502L9.58464 15.1431C9.29174 14.8502 8.81687 14.8502 8.52398 15.1431C8.23108 15.436 8.23108 15.9109 8.52398 16.2038L9.23108 16.9109C9.29544 16.9752 9.36857 17.0255 9.44664 17.0615L9.02735 17.4808C8.99127 17.4027 8.94106 17.3296 8.87671 17.2653L8.1696 16.5582C7.87671 16.2653 7.40184 16.2653 7.10894 16.5582C6.81605 16.851 6.81605 17.3259 7.10894 17.6188L7.81605 18.3259C7.8804 18.3903 7.95354 18.4405 8.0316 18.4766L7.61232 18.8958C7.57624 18.8178 7.52603 18.7446 7.46168 18.6803L6.75457 17.9732C6.46168 17.6803 5.9868 17.6803 5.69391 17.9732C5.40102 18.2661 5.40102 18.741 5.69391 19.0338L6.40102 19.741C6.46537 19.8053 6.53851 19.8555 6.61657 19.8916L5.47626 21.0319L3.35494 18.9106L11.4867 10.7789L11.6331 10.6324L11.6331 10.4253L11.6331 8.80398L12.1938 9.36464L12.5473 9.71819L12.9009 9.36464L16.4364 5.8291L16.79 5.47555L16.4364 5.12199L15.8751 4.56069L17.4988 4.55983L17.7058 4.55972L17.8521 4.41338L18.9113 3.35423L21.0326 5.47555L20.3476 6.16054C20.3115 6.08248 20.2613 6.00934 20.197 5.94499L19.4899 5.23788C19.197 4.94499 18.7221 4.94499 18.4292 5.23788C18.1363 5.53078 18.1363 6.00565 18.4292 6.29854L19.1363 7.00565C19.3429 7.21222 19.64 7.2731 19.8999 7.18829L20.597 9.28259L19.2648 7.95042L18.9611 7.64668C18.9252 7.54195 18.8655 7.44358 18.7819 7.36002L18.0748 6.65292C17.7819 6.36002 17.3071 6.36002 17.0142 6.65292C16.7213 6.94581 16.7213 7.42068 17.0142 7.71358L17.7213 8.42068C17.7856 8.48504 17.8588 8.53525 17.9368 8.57132L17.5176 8.99061C17.4815 8.91255 17.4313 8.83941 17.3669 8.77506L16.6598 8.06795C16.3669 7.77506 15.892 7.77506 15.5991 8.06795C15.3063 8.36084 15.3063 8.83572 15.5991 9.12861L16.3063 9.83572C16.3706 9.90007 16.4437 9.95028 16.5218 9.98636L16.1025 10.4056C16.0664 10.3276 16.0162 10.2544 15.9519 10.1901L15.2448 9.48298C14.9519 9.19009 14.477 9.19009 14.1841 9.48298C13.8912 9.77588 13.8912 10.2508 14.1841 10.5436L14.8912 11.2508C14.9556 11.3151 15.0287 11.3653 15.1068 11.4014L15.0222 11.486L14.6875 11.8207C14.6514 11.7426 14.6012 11.6695 14.5368 11.6051L13.8297 10.898C13.5368 10.6051 13.062 10.6051 12.7691 10.898C12.4762 11.1909 12.4762 11.6658 12.7691 11.9587L13.4762 12.6658Z" fill="#9F9F9F" stroke="#9F9F9F"/>
</g>
<defs>
<clipPath id="clip0_232_7559">
<rect width="24" height="24" fill="white"/>
</clipPath>
</defs>
</svg>
