<svg width="24" height="24" viewBox="0 0 24 24" fill="none" xmlns="http://www.w3.org/2000/svg">
<g id="Icon / solid/cash 2">
<g id="Subtract">
<path d="M12.3381 15.0534C12.5014 15.0313 12.6505 14.9937 12.7855 14.9403C13.0185 14.8494 13.1989 14.723 13.3267 14.5611C13.4545 14.3991 13.5185 14.2131 13.5185 14.0028C13.5185 13.8068 13.4602 13.642 13.3438 13.5085C13.2301 13.375 13.0625 13.2614 12.8409 13.1676C12.6953 13.1052 12.5277 13.0466 12.3381 12.9918V15.0534Z" fill="#9F9F9F"/>
<path d="M11.6392 11.1652V9.21962C11.4904 9.24051 11.3569 9.27526 11.2386 9.32386C11.0312 9.40625 10.8722 9.52131 10.7614 9.66903C10.6534 9.81676 10.5994 9.98438 10.5994 10.1719C10.5938 10.3281 10.6264 10.4645 10.6974 10.581C10.7713 10.6974 10.8722 10.7983 11 10.8835C11.1278 10.9659 11.2756 11.0384 11.4432 11.1009C11.5069 11.1235 11.5722 11.145 11.6392 11.1652Z" fill="#9F9F9F"/>
<path fill-rule="evenodd" clip-rule="evenodd" d="M12 22C17.5228 22 22 17.5228 22 12C22 6.47715 17.5228 2 12 2C6.47715 2 2 6.47715 2 12C2 17.5228 6.47715 22 12 22ZM11.6392 16.6141V17.5909H12.3381V16.6148C12.9017 16.5853 13.3931 16.4817 13.8125 16.304C14.3182 16.0881 14.7045 15.7855 14.9716 15.3963C15.2415 15.0043 15.3778 14.5412 15.3807 14.0071C15.3778 13.6435 15.3111 13.321 15.1804 13.0398C15.0526 12.7585 14.8722 12.5142 14.6392 12.3068C14.4062 12.0994 14.1307 11.9247 13.8125 11.7827C13.4943 11.6406 13.1449 11.527 12.7642 11.4418L12.3381 11.3399V9.21656C12.6262 9.25391 12.8648 9.34224 13.054 9.48153C13.3125 9.67188 13.4588 9.93892 13.4929 10.2827H15.2614C15.2528 9.76278 15.1136 9.3054 14.8438 8.91051C14.5739 8.51562 14.196 8.20739 13.7102 7.9858C13.3095 7.80195 12.8522 7.69437 12.3381 7.66306V6.68182H11.6392V7.6668C11.1525 7.70236 10.7093 7.80869 10.3097 7.9858C9.80966 8.20739 9.41619 8.51562 9.12926 8.91051C8.84517 9.3054 8.70455 9.76705 8.70739 10.2955C8.70455 10.9403 8.91619 11.4531 9.34233 11.8338C9.76847 12.2145 10.3494 12.4943 11.0852 12.6733L11.6392 12.8124V15.0578C11.4512 15.0355 11.2765 14.9935 11.1151 14.9318C10.8651 14.8324 10.6648 14.6861 10.5142 14.4929C10.3665 14.2969 10.2827 14.0526 10.2628 13.7599H8.47727C8.49148 14.3878 8.64347 14.9148 8.93324 15.3409C9.22585 15.7642 9.6321 16.0838 10.152 16.2997C10.5853 16.4787 11.081 16.5835 11.6392 16.6141Z" fill="#9F9F9F"/>
</g>
</g>
</svg>
