<svg width="14" height="14" viewBox="0 0 14 14" fill="none" xmlns="http://www.w3.org/2000/svg">
<g id="Icon / solid/NIGHT MODE">
<g id="Union">
<path d="M4.8416 4.57622C5.59334 6.56866 7.30629 8.03964 9.31384 8.30294C10.2675 8.43116 11.2362 8.29335 12.1244 7.90312C12.3116 7.821 12.5013 8.01193 12.4442 8.21825C11.7244 10.8179 9.3656 12.6738 6.63437 12.4336C3.96263 12.199 1.77754 9.87298 1.56373 7.03777C1.39151 4.75277 2.4485 2.71773 4.1063 1.58755C4.1445 1.56093 4.18903 1.54633 4.23472 1.54545C4.28041 1.54457 4.32541 1.55745 4.36449 1.58259C4.40357 1.60772 4.43514 1.64409 4.45554 1.68748C4.47594 1.73087 4.48434 1.77951 4.47976 1.82775C4.38383 2.76156 4.50817 3.70603 4.8416 4.57622Z" fill="#181818"/>
<path d="M9.44274 7.27288L9.726 6.81979L10.2647 6.84719C10.3659 6.86125 10.469 6.84434 10.5601 6.79875C10.6512 6.75316 10.726 6.68109 10.7742 6.59227C10.8162 6.50045 10.8285 6.39806 10.8093 6.29911C10.7901 6.20015 10.7405 6.10944 10.6671 6.03938L10.3382 5.66116L10.4914 5.17578C10.527 5.0894 10.5358 4.99454 10.5167 4.90323C10.4976 4.81191 10.4514 4.72824 10.3841 4.66281C10.3167 4.59738 10.2312 4.55313 10.1383 4.53566C10.0455 4.51819 9.94946 4.52828 9.86242 4.56466L9.39958 4.71487L8.93129 4.38216C8.85718 4.32339 8.7677 4.28655 8.67323 4.27589C8.57875 4.26524 8.48315 4.28122 8.39751 4.32198C8.31493 4.36837 8.24734 4.43687 8.20257 4.51956C8.1578 4.60225 8.13767 4.69575 8.14451 4.78925L8.15592 5.35829L7.76799 5.64844C7.68819 5.69816 7.62512 5.77008 7.58672 5.85512C7.54833 5.94016 7.53633 6.03451 7.55226 6.12627C7.56818 6.21803 7.6113 6.30308 7.67618 6.37069C7.74106 6.4383 7.82479 6.48544 7.91681 6.50616L8.40991 6.65784L8.5374 7.13979C8.55416 7.23925 8.60166 7.33117 8.67341 7.40299C8.74516 7.47481 8.83765 7.52301 8.93823 7.54101C8.95926 7.54399 8.98048 7.54546 9.00173 7.54541C9.09332 7.54343 9.18267 7.51705 9.26031 7.46908C9.33794 7.4211 9.40098 7.35331 9.44274 7.27288Z" fill="#181818"/>
<path d="M11.181 3.78894L10.9921 4.09099C10.9643 4.14461 10.9223 4.18981 10.8705 4.22179C10.8187 4.25378 10.7592 4.27136 10.6981 4.27268C10.6839 4.27272 10.6698 4.27174 10.6558 4.26975C10.5887 4.25775 10.5271 4.22562 10.4792 4.17774C10.4314 4.12986 10.3997 4.06858 10.3886 4.00227L10.3036 3.68097L9.97483 3.57985C9.91349 3.56604 9.85766 3.53461 9.81441 3.48954C9.77115 3.44446 9.74241 3.38776 9.73179 3.32659C9.72118 3.26542 9.72917 3.20252 9.75477 3.14582C9.78037 3.08913 9.82242 3.04118 9.87562 3.00803L10.1342 2.8146L10.1266 2.43524C10.1221 2.37291 10.1355 2.31058 10.1653 2.25545C10.1952 2.20033 10.2402 2.15466 10.2953 2.12373C10.3524 2.09656 10.4161 2.0859 10.4791 2.09301C10.5421 2.10011 10.6017 2.12467 10.6511 2.16385L10.9633 2.38566L11.2719 2.28552C11.3299 2.26126 11.3939 2.25453 11.4559 2.26618C11.5178 2.27783 11.5748 2.30733 11.6197 2.35095C11.6646 2.39457 11.6953 2.45035 11.7081 2.51123C11.7208 2.5721 11.715 2.63534 11.6913 2.69293L11.5891 3.01652L11.8083 3.26866C11.8573 3.31537 11.8904 3.37584 11.9032 3.44181C11.916 3.50779 11.9078 3.57604 11.8798 3.63726C11.8476 3.69647 11.7978 3.74452 11.737 3.77491C11.6763 3.8053 11.6076 3.81657 11.5401 3.80721L11.181 3.78894Z" fill="#181818"/>
<path d="M6.85771 3.59096L6.99934 3.36442L7.26871 3.37812C7.31929 3.38515 7.37084 3.37669 7.4164 3.3539C7.46195 3.3311 7.49932 3.29507 7.52345 3.25066C7.54446 3.20475 7.55059 3.15356 7.541 3.10408C7.53141 3.0546 7.50657 3.00925 7.46987 2.97421L7.30542 2.7851L7.38206 2.54242C7.39985 2.49922 7.40424 2.45179 7.39468 2.40614C7.38513 2.36048 7.36205 2.31865 7.32838 2.28593C7.2947 2.25321 7.25194 2.23109 7.20551 2.22235C7.15908 2.21362 7.11107 2.21866 7.06755 2.23685L6.83613 2.31196L6.60198 2.1456C6.56493 2.11622 6.52019 2.0978 6.47295 2.09247C6.42572 2.08714 6.37792 2.09513 6.3351 2.11551C6.2938 2.13871 6.26001 2.17296 6.23763 2.2143C6.21524 2.25565 6.20518 2.3024 6.2086 2.34915L6.2143 2.63367L6.02034 2.77874C5.98044 2.8036 5.9489 2.83956 5.9297 2.88208C5.91051 2.9246 5.90451 2.97178 5.91247 3.01766C5.92043 3.06354 5.94199 3.10606 5.97443 3.13987C6.00687 3.17368 6.04874 3.19724 6.09475 3.2076L6.3413 3.28344L6.40504 3.52442C6.41342 3.57415 6.43717 3.62011 6.47305 3.65602C6.50892 3.69193 6.55517 3.71603 6.60546 3.72503C6.61597 3.72652 6.62658 3.72726 6.63721 3.72723C6.683 3.72624 6.72768 3.71305 6.7665 3.68906C6.80531 3.66507 6.83683 3.63118 6.85771 3.59096Z" fill="#181818"/>
</g>
</g>
</svg>
