<svg width="24" height="24" viewBox="0 0 24 24" fill="none" xmlns="http://www.w3.org/2000/svg">
<g id="Icon / solid/help 2">
<path id="Subtract" fill-rule="evenodd" clip-rule="evenodd" d="M12 22C17.5228 22 22 17.5228 22 12C22 6.47715 17.5228 2 12 2C6.47715 2 2 6.47715 2 12C2 17.5228 6.47715 22 12 22ZM10.7841 13.7386V13.8835H12.3991V13.7386C12.402 13.4602 12.4375 13.2259 12.5057 13.0355C12.5767 12.8452 12.6832 12.6776 12.8253 12.5327C12.9702 12.3878 13.1548 12.2486 13.3793 12.1151C13.6463 11.956 13.8778 11.7784 14.0739 11.5824C14.2699 11.3835 14.4219 11.1562 14.5298 10.9006C14.6406 10.642 14.696 10.3466 14.696 10.0142C14.696 9.51705 14.5724 9.09233 14.3253 8.74006C14.0781 8.38778 13.7372 8.11932 13.3026 7.93466C12.8679 7.74716 12.3679 7.65341 11.8026 7.65341C11.2884 7.65341 10.8182 7.74574 10.392 7.9304C9.96591 8.11222 9.62358 8.3892 9.36506 8.76136C9.10653 9.13068 8.97017 9.59943 8.95597 10.1676H10.6946C10.7031 9.93466 10.7599 9.74006 10.8651 9.58381C10.9702 9.42472 11.1051 9.3054 11.2699 9.22585C11.4347 9.14347 11.6094 9.10227 11.794 9.10227C11.9844 9.10227 12.1577 9.14205 12.3139 9.22159C12.473 9.30114 12.5994 9.41477 12.6932 9.5625C12.7869 9.71023 12.8338 9.8821 12.8338 10.0781C12.8338 10.2628 12.7926 10.4304 12.7102 10.581C12.6278 10.7287 12.517 10.8636 12.3778 10.9858C12.2386 11.108 12.081 11.2259 11.9048 11.3395C11.669 11.4872 11.4673 11.652 11.2997 11.8338C11.1321 12.0156 11.0043 12.2543 10.9162 12.5497C10.831 12.8452 10.7869 13.2415 10.7841 13.7386ZM10.8991 16.3125C11.1009 16.5114 11.3438 16.6108 11.6278 16.6108C11.8097 16.6108 11.9773 16.5653 12.1307 16.4744C12.2841 16.3807 12.4077 16.2571 12.5014 16.1037C12.598 15.9474 12.6477 15.7756 12.6506 15.5881C12.6477 15.3097 12.544 15.071 12.3395 14.8722C12.1349 14.6733 11.8977 14.5739 11.6278 14.5739C11.3438 14.5739 11.1009 14.6733 10.8991 14.8722C10.7003 15.071 10.6023 15.3097 10.6051 15.5881C10.6023 15.8693 10.7003 16.1108 10.8991 16.3125Z" fill="#181818"/>
</g>
</svg>
