<svg width="24" height="24" viewBox="0 0 24 24" fill="none" xmlns="http://www.w3.org/2000/svg">
<g id="Icon / solid/ notification inactive">
<path id="Union" d="M6.47609 7.84711L6.47612 7.8471L6.47434 7.84177C6.04599 6.55672 6.45899 5.2486 7.47851 4.22933C8.50203 3.20608 10.1213 2.50095 12.0003 2.49989C13.8788 2.49882 15.4979 3.20381 16.5214 4.22754C17.5404 5.24681 17.9536 6.55522 17.5264 7.83964C17.0226 9.30436 16.7445 10.3748 16.7451 11.2251C16.7457 12.1305 17.0612 12.7712 17.6474 13.3543C18.1034 13.808 18.5744 14.4851 18.9309 15.1869C19.2938 15.9011 19.5 16.5663 19.5 16.9999C19.5 17.284 19.4992 17.5127 19.473 17.7136C19.4473 17.91 19.4016 18.0388 19.3386 18.1299C19.233 18.2828 18.9527 18.4999 18 18.4999H17.9882H17.9763H17.9642H17.952H17.9397H17.9272H17.9146H17.9019H17.889H17.876H17.8629H17.8496H17.8363H17.8227H17.8091H17.7953H17.7814H17.7673H17.7532H17.7389H17.7245H17.7099H17.6952H17.6804H17.6655H17.6505H17.6353H17.62H17.6046H17.5891H17.5734H17.5576H17.5417H17.5257H17.5096H17.4933H17.4769H17.4604H17.4438H17.4271H17.4103H17.3933H17.3762H17.3591H17.3418H17.3244H17.3068H17.2892H17.2714H17.2536H17.2356H17.2175H17.1993H17.181H17.1626H17.1441H17.1255H17.1068H17.0879H17.069H17.05H17.0308H17.0116H16.9922H16.9727H16.9532H16.9335H16.9137H16.8939H16.8739H16.8538H16.8337H16.8134H16.793H16.7726H16.752H16.7314H16.7106H16.6898H16.6688H16.6478H16.6267H16.6054H16.5841H16.5627H16.5412H16.5196H16.4979H16.4762H16.4543H16.4324H16.4103H16.3882H16.366H16.3437H16.3213H16.2988H16.2763H16.2536H16.2309H16.2081H16.1852H16.1622H16.1392H16.116H16.0928H16.0695H16.0461H16.0226H15.9991H15.9755H15.9518H15.928H15.9042H15.8802H15.8562H15.8322H15.808H15.7838H15.7595H15.7351H15.7107H15.6862H15.6616H15.6369H15.6122H15.5874H15.5625H15.5376H15.5126H15.4875H15.4624H15.4372H15.4119H15.3865H15.3611H15.3357H15.3101H15.2845H15.2589H15.2332H15.2074H15.1816H15.1556H15.1297H15.1037H15.0776H15.0514H15.0252H14.999H14.9727H14.9463H14.9199H14.8934H14.8669H14.8403H14.8136H14.787H14.7602H14.7334H14.7066H14.6797H14.6527H14.6257H14.5986H14.5715H14.5444H14.5172H14.49H14.4627H14.4353H14.408H14.3805H14.3531H14.3255H14.298H14.2704H14.2427H14.2151H14.1873H14.1596H14.1317H14.1039H14.076H14.0481H14.0201H13.9921H13.9641H13.936H13.9079H13.8798H13.8516H13.8234H13.7951H13.7668H13.7385H13.7102H13.6818H13.6534H13.6249H13.5965H13.568H13.5394H13.5109H13.4823H13.4537H13.425H13.3964H13.3677H13.339H13.3102H13.2815H13.2527H13.2239H13.195H13.1662H13.1373H13.1084H13.0795H13.0505H13.0216H12.9926H12.9636H12.9346H12.9055H12.8765H12.8474H12.8184H12.7893H12.7602H12.731H12.7019H12.6727H12.6436H12.6144H12.5852H12.556H12.5268H12.4976H12.4684H12.4392H12.4099H12.3807H12.3514H12.3222H12.2929H12.2636H12.2343H12.2051H12.1758H12.1465H12.1172H12.0879H12.0586H12.0293H12H11.9707H11.9414H11.9121H11.8828H11.8535H11.8242H11.795H11.7657H11.7364H11.7071H11.6779H11.6486H11.6193H11.5901H11.5609H11.5316H11.5024H11.4732H11.444H11.4148H11.3856H11.3564H11.3273H11.2981H11.269H11.2399H11.2107H11.1817H11.1526H11.1235H11.0945H11.0654H11.0364H11.0074H10.9784H10.9495H10.9205H10.8916H10.8627H10.8339H10.805H10.7762H10.7473H10.7186H10.6898H10.6611H10.6323H10.6036H10.575H10.5463H10.5177H10.4891H10.4606H10.4321H10.4036H10.3751H10.3466H10.3182H10.2899H10.2615H10.2332H10.2049H10.1767H10.1484H10.1203H10.0921H10.064H10.0359H10.0079H9.97989H9.95193H9.924H9.89611H9.86827H9.84046H9.81269H9.78496H9.75728H9.72963H9.70203H9.67447H9.64696H9.61948H9.59206H9.56468H9.53734H9.51005H9.48281H9.45561H9.42846H9.40136H9.37431H9.34731H9.32036H9.29346H9.2666H9.23981H9.21306H9.18636H9.15972H9.13313H9.1066H9.08012H9.0537H9.02733H9.00102H8.97476H8.94857H8.92243H8.89635H8.87033H8.84436H8.81846H8.79262H8.76684H8.74112H8.71546H8.68987H8.66434H8.63887H8.61347H8.58813H8.56286H8.53765H8.51252H8.48744H8.46244H8.4375H8.41263H8.38784H8.36311H8.33845H8.31386H8.28934H8.2649H8.24053H8.21623H8.192H8.16785H8.14377H8.11977H8.09584H8.07199H8.04822H8.02452H8.0009H7.97736H7.9539H7.93052H7.90722H7.884H7.86086H7.8378H7.81482H7.79193H7.76911H7.74639H7.72374H7.70119H7.67871H7.65632H7.63402H7.61181H7.58968H7.56764H7.54569H7.52383H7.50206H7.48038H7.45879H7.43729H7.41588H7.39457H7.37334H7.35221H7.33118H7.31024H7.28939H7.26864H7.24798H7.22743H7.20697H7.1866H7.16634H7.14617H7.1261H7.10613H7.08627H7.0665H7.04684H7.02727H7.00781H6.98846H6.9692H6.95005H6.93101H6.91207H6.89323H6.8745H6.85588H6.83737H6.81896H6.80066H6.78247H6.76439H6.74642H6.72856H6.71082H6.69318H6.67565H6.65824H6.64094H6.62376H6.60669H6.58973H6.57289H6.55617H6.53956H6.52307H6.50669H6.49044H6.4743H6.45828H6.44238H6.4266H6.41095H6.39541H6.38H6.3647H6.34953H6.33449H6.31956H6.30477H6.29009H6.27555H6.26113H6.24683H6.23266H6.21862H6.20471H6.19093H6.17727H6.16375H6.15036H6.1371H6.12396H6.11097H6.0981H6.08536H6.07276H6.0603H6.04797H6.03577H6.02371H6.01179H6C5.0473 18.4999 4.76702 18.2828 4.6614 18.1299C4.59843 18.0388 4.55269 17.91 4.52704 17.7136C4.5008 17.5127 4.5 17.284 4.5 16.9999C4.5 16.5614 4.69694 15.8935 5.05135 15.1837C5.40068 14.4841 5.86876 13.8124 6.34366 13.3631L6.34379 13.3632L6.35342 13.3536C6.63512 13.0721 6.86257 12.77 7.01572 12.4142C7.16947 12.0571 7.23699 11.6723 7.23391 11.2401C7.22793 10.4012 6.95271 9.3324 6.47609 7.84711Z" fill="#181818" stroke="#181818"/>
<path id="Rectangle 317" d="M9.5 20H14.5C14.5 21.1046 13.6046 22 12.5 22H11.5C10.3954 22 9.5 21.1046 9.5 20Z" fill="#181818"/>
</g>
</svg>
