<svg width="24" height="24" viewBox="0 0 24 24" fill="none" xmlns="http://www.w3.org/2000/svg">
<g id="Icon / solid/rocket">
<path id="Vector" d="M18.3819 12.2827C21.6937 7.26717 20.9344 3.56865 20.9045 3.41229C20.8865 3.33202 20.8479 3.2609 20.7922 3.2052C20.7365 3.1495 20.6654 3.11094 20.5852 3.09292C20.3931 3.05882 16.6568 2.32444 11.687 5.61834C10.0999 5.59547 5.65602 5.70193 3.80744 7.55077C3.70268 7.65555 3.63726 7.79108 3.62556 7.92755C3.61387 8.06403 3.65686 8.19027 3.74508 8.2785L6.07347 10.6072L4.88848 11.7924C4.78372 11.8972 4.7183 12.0327 4.7066 12.1692C4.69491 12.3056 4.7379 12.4319 4.82612 12.5201L11.4787 19.1736C11.5669 19.2619 11.6931 19.3048 11.8296 19.2931C11.966 19.2815 12.1015 19.216 12.2063 19.1112L13.3913 17.9261L15.7197 20.2548C15.8079 20.343 15.9341 20.386 16.0706 20.3743C16.207 20.3626 16.3425 20.2972 16.4473 20.1924C18.3038 18.3357 18.3981 13.8633 18.3819 12.2827ZM11.1876 14.1419L9.85711 12.8112C9.76889 12.723 9.7259 12.5967 9.73759 12.4603C9.74929 12.3238 9.81471 12.1882 9.91947 12.0835C10.0242 11.9787 10.1597 11.9133 10.2962 11.9016C10.4327 11.8899 10.5589 11.9329 10.6471 12.0211L11.9776 13.3518C12.0658 13.44 12.1088 13.5663 12.0971 13.7027C12.0854 13.8392 12.02 13.9748 11.9152 14.0795C11.8105 14.1843 11.675 14.2497 11.5385 14.2614C11.4021 14.2731 11.2758 14.2301 11.1876 14.1419ZM12.1023 11.8963C11.7734 11.5674 11.5677 11.1299 11.5112 10.6393C11.4547 10.1487 11.55 9.62705 11.785 9.14022C12.02 8.65339 12.3842 8.22329 12.8314 7.90431C13.2787 7.58533 13.789 7.3918 14.2978 7.34818C14.8066 7.30456 15.2911 7.41282 15.6899 7.65927C16.0887 7.90572 16.384 8.27928 16.5384 8.73273C16.6928 9.18617 16.6994 9.69913 16.5574 10.2067C16.4154 10.7143 16.1311 11.1938 15.7405 11.5845C15.2167 12.1083 14.5391 12.4355 13.8568 12.494C13.1745 12.5525 12.5434 12.3375 12.1023 11.8963ZM10.0234 19.2984C9.9352 19.2101 9.80898 19.1671 9.67252 19.1788C9.53607 19.1905 9.40056 19.256 9.2958 19.3608L8.50581 20.1509C8.40105 20.2556 8.33562 20.3912 8.32393 20.5276C8.31223 20.6641 8.35522 20.7904 8.44344 20.8786C8.53166 20.9668 8.65788 21.0098 8.79433 20.9981C8.93079 20.9864 9.0663 20.921 9.17106 20.8162L9.96105 20.0261C10.0658 19.9213 10.1312 19.7858 10.1429 19.6493C10.1546 19.5128 10.1116 19.3866 10.0234 19.2984ZM4.70138 13.9756C4.61316 13.8873 4.48694 13.8443 4.35049 13.856C4.21403 13.8677 4.07852 13.9332 3.97376 14.0379L3.18377 14.828C3.07901 14.9328 3.01358 15.0684 3.00189 15.2048C2.99019 15.3413 3.03318 15.4675 3.1214 15.5558C3.20962 15.644 3.33584 15.687 3.47229 15.6753C3.60875 15.6636 3.74426 15.5982 3.84902 15.4934L4.63901 14.7033C4.74377 14.5985 4.8092 14.463 4.82089 14.3265C4.83259 14.19 4.7896 14.0638 4.70138 13.9756ZM4.87559 18.685C4.86823 18.811 4.90963 18.9267 4.9913 19.0084C5.07296 19.0901 5.18868 19.1315 5.31466 19.1241C6.50748 19.0582 7.71631 18.7147 8.84592 18.1207L5.87888 15.1532C5.28495 16.283 4.94151 17.492 4.87559 18.685Z" fill="#000000"/>
</g>
</svg>
