<svg width="24" height="24" viewBox="0 0 24 24" fill="none" xmlns="http://www.w3.org/2000/svg">
<g id="Icon / solid/settings 3">
<g id="Subtract">
<mask id="path-1-inside-1_232_7561" fill="white">
<path fill-rule="evenodd" clip-rule="evenodd" d="M12.4853 2C13.3218 2 14 2.67816 14 3.51471C14 4.86417 15.6316 5.53999 16.5858 4.58577C17.1773 3.99424 18.1364 3.99424 18.7279 4.58577L19.4142 5.27207C20.0057 5.86361 20.0057 6.82267 19.4142 7.41421C18.46 8.36843 19.1358 10 20.4853 10C21.3218 10 22 10.6782 22 11.5147V12.4853C22 13.3218 21.3218 14 20.4853 14C19.1358 14 18.46 15.6316 19.4142 16.5858C20.0057 17.1773 20.0057 18.1364 19.4142 18.7279L18.7279 19.4142C18.1364 20.0057 17.1773 20.0057 16.5858 19.4142C15.6316 18.46 14 19.1358 14 20.4853C14 21.3218 13.3218 22 12.4853 22H11.5147C10.6782 22 10 21.3218 10 20.4853C10 19.1358 8.36842 18.46 7.4142 19.4142C6.82266 20.0057 5.86359 20.0057 5.27205 19.4142L4.58576 18.7279C3.99423 18.1364 3.99423 17.1773 4.58577 16.5858C5.53998 15.6316 4.86417 14 3.51471 14C2.67816 14 2 13.3218 2 12.4853V11.5147C2 10.6782 2.67816 10 3.51472 10C4.86419 10 5.54 8.36843 4.58578 7.41421C3.99425 6.82268 3.99424 5.86361 4.58578 5.27207L5.27207 4.58578C5.8636 3.99425 6.82267 3.99425 7.41421 4.58578C8.36843 5.54 10 4.86419 10 3.51472C10 2.67816 10.6782 2 11.5147 2H12.4853ZM12 9C10.3431 9 9 10.3431 9 12C9 13.6569 10.3431 15 12 15C13.6569 15 15 13.6569 15 12C15 10.3431 13.6569 9 12 9Z"/>
</mask>
<path fill-rule="evenodd" clip-rule="evenodd" d="M12.4853 2C13.3218 2 14 2.67816 14 3.51471C14 4.86417 15.6316 5.53999 16.5858 4.58577C17.1773 3.99424 18.1364 3.99424 18.7279 4.58577L19.4142 5.27207C20.0057 5.86361 20.0057 6.82267 19.4142 7.41421C18.46 8.36843 19.1358 10 20.4853 10C21.3218 10 22 10.6782 22 11.5147V12.4853C22 13.3218 21.3218 14 20.4853 14C19.1358 14 18.46 15.6316 19.4142 16.5858C20.0057 17.1773 20.0057 18.1364 19.4142 18.7279L18.7279 19.4142C18.1364 20.0057 17.1773 20.0057 16.5858 19.4142C15.6316 18.46 14 19.1358 14 20.4853C14 21.3218 13.3218 22 12.4853 22H11.5147C10.6782 22 10 21.3218 10 20.4853C10 19.1358 8.36842 18.46 7.4142 19.4142C6.82266 20.0057 5.86359 20.0057 5.27205 19.4142L4.58576 18.7279C3.99423 18.1364 3.99423 17.1773 4.58577 16.5858C5.53998 15.6316 4.86417 14 3.51471 14C2.67816 14 2 13.3218 2 12.4853V11.5147C2 10.6782 2.67816 10 3.51472 10C4.86419 10 5.54 8.36843 4.58578 7.41421C3.99425 6.82268 3.99424 5.86361 4.58578 5.27207L5.27207 4.58578C5.8636 3.99425 6.82267 3.99425 7.41421 4.58578C8.36843 5.54 10 4.86419 10 3.51472C10 2.67816 10.6782 2 11.5147 2H12.4853ZM12 9C10.3431 9 9 10.3431 9 12C9 13.6569 10.3431 15 12 15C13.6569 15 15 13.6569 15 12C15 10.3431 13.6569 9 12 9Z" fill="#000000"/>
<path d="M16.5858 4.58577L17.6464 5.64643L17.6464 5.64643L16.5858 4.58577ZM18.7279 4.58577L17.6672 5.64643V5.64643L18.7279 4.58577ZM19.4142 5.27207L20.4748 4.21141V4.21141L19.4142 5.27207ZM19.4142 18.7279L20.4749 19.7886V19.7886L19.4142 18.7279ZM18.7279 19.4142L17.6673 18.3535L17.6672 18.3535L18.7279 19.4142ZM16.5858 19.4142L17.6464 18.3535L17.6464 18.3535L16.5858 19.4142ZM7.4142 19.4142L8.47486 20.4749L8.47486 20.4749L7.4142 19.4142ZM5.27205 19.4142L4.21139 20.4749V20.4749L5.27205 19.4142ZM4.58576 18.7279L3.5251 19.7886H3.5251L4.58576 18.7279ZM4.58577 16.5858L3.52511 15.5251L3.52511 15.5251L4.58577 16.5858ZM4.58578 7.41421L5.64644 6.35355L4.58578 7.41421ZM4.58578 5.27207L5.64644 6.33273L5.64644 6.33273L4.58578 5.27207ZM7.41421 4.58578L8.47487 3.52512L8.47487 3.52512L7.41421 4.58578ZM15.5 3.51471C15.5 1.84973 14.1503 0.5 12.4853 0.5V3.5C12.4883 3.5 12.4896 3.50028 12.4898 3.50032C12.4901 3.50038 12.4903 3.50044 12.4906 3.50054C12.4912 3.50083 12.4933 3.50189 12.4957 3.50431C12.4981 3.50673 12.4992 3.50877 12.4995 3.50945C12.4996 3.50969 12.4996 3.50986 12.4997 3.51016C12.4997 3.51037 12.5 3.51173 12.5 3.51471H15.5ZM15.5251 3.52511C15.519 3.53119 15.515 3.53436 15.5132 3.53563C15.5115 3.53691 15.5112 3.53692 15.5124 3.53632C15.5153 3.53482 15.5194 3.53341 15.5231 3.53276C15.5263 3.53221 15.5266 3.53266 15.5235 3.5323C15.5203 3.53192 15.5151 3.53079 15.5091 3.5283C15.5031 3.52581 15.4986 3.52295 15.496 3.52091C15.4936 3.51902 15.4941 3.51886 15.496 3.52151C15.4982 3.52461 15.5001 3.52853 15.5011 3.53164C15.5015 3.53289 15.5013 3.53268 15.501 3.53055C15.5006 3.52843 15.5 3.52331 15.5 3.51471H12.5C12.5 6.20053 15.7473 7.5456 17.6464 5.64643L15.5251 3.52511ZM19.7886 3.52511C18.6112 2.34779 16.7024 2.3478 15.5251 3.52511L17.6464 5.64643C17.6485 5.64432 17.6497 5.64356 17.6499 5.64344C17.6501 5.64327 17.6503 5.64319 17.6505 5.64309C17.6512 5.64282 17.6534 5.64213 17.6568 5.64213C17.6603 5.64213 17.6625 5.64282 17.6631 5.64309C17.6634 5.64319 17.6635 5.64327 17.6638 5.64344C17.664 5.64356 17.6651 5.64432 17.6672 5.64643L19.7886 3.52511ZM20.4748 4.21141L19.7886 3.52511L17.6672 5.64643L18.3535 6.33273L20.4748 4.21141ZM20.4748 8.47487C21.6522 7.29755 21.6522 5.38873 20.4748 4.21141L18.3535 6.33273C18.3556 6.33484 18.3564 6.336 18.3565 6.33618C18.3567 6.33644 18.3568 6.3366 18.3569 6.33684C18.3571 6.33752 18.3578 6.33971 18.3578 6.34314C18.3578 6.34656 18.3571 6.34876 18.3569 6.34944C18.3568 6.34968 18.3567 6.34984 18.3565 6.3501C18.3564 6.35028 18.3556 6.35144 18.3535 6.35355L20.4748 8.47487ZM20.4853 8.5C20.4767 8.5 20.4716 8.49936 20.4694 8.49904C20.4673 8.49871 20.4671 8.49852 20.4683 8.49892C20.4714 8.49991 20.4754 8.50183 20.4785 8.50401C20.4811 8.50588 20.4809 8.50636 20.4791 8.50396C20.477 8.50137 20.4741 8.49691 20.4717 8.49091C20.4692 8.4849 20.468 8.47973 20.4677 8.47645C20.4673 8.47342 20.4678 8.47364 20.4672 8.47684C20.4666 8.48057 20.4651 8.4847 20.4636 8.48761C20.463 8.48877 20.4631 8.48849 20.4643 8.48675C20.4656 8.48502 20.4688 8.48095 20.4748 8.47487L18.3535 6.35355C16.4543 8.25273 17.7995 11.5 20.4853 11.5V8.5ZM23.5 11.5147C23.5 9.84973 22.1503 8.5 20.4853 8.5V11.5C20.4883 11.5 20.4896 11.5003 20.4898 11.5003C20.4901 11.5004 20.4903 11.5004 20.4905 11.5005C20.4912 11.5008 20.4933 11.5019 20.4957 11.5043C20.4981 11.5067 20.4992 11.5088 20.4995 11.5095C20.4996 11.5097 20.4996 11.5099 20.4997 11.5102C20.4997 11.5104 20.5 11.5117 20.5 11.5147H23.5ZM23.5 12.4853V11.5147H20.5V12.4853H23.5ZM20.4853 15.5C22.1503 15.5 23.5 14.1503 23.5 12.4853H20.5C20.5 12.4883 20.4997 12.4896 20.4997 12.4898C20.4996 12.4901 20.4996 12.4903 20.4995 12.4905C20.4992 12.4912 20.4981 12.4933 20.4957 12.4957C20.4933 12.4981 20.4912 12.4992 20.4905 12.4995C20.4903 12.4996 20.4901 12.4996 20.4898 12.4997C20.4896 12.4997 20.4883 12.5 20.4853 12.5V15.5ZM20.4749 15.5251C20.4688 15.519 20.4656 15.515 20.4643 15.5132C20.4631 15.5115 20.4631 15.5112 20.4637 15.5124C20.4652 15.5153 20.4666 15.5194 20.4672 15.5232C20.4678 15.5264 20.4673 15.5266 20.4677 15.5235C20.4681 15.5203 20.4692 15.5151 20.4717 15.5091C20.4742 15.5031 20.477 15.4986 20.4791 15.496C20.481 15.4936 20.4811 15.4941 20.4785 15.496C20.4754 15.4982 20.4715 15.5001 20.4683 15.5011C20.4671 15.5015 20.4673 15.5013 20.4694 15.501C20.4716 15.5006 20.4767 15.5 20.4853 15.5V12.5C17.7995 12.5 16.4544 15.7473 18.3535 17.6464L20.4749 15.5251ZM20.4749 19.7886C21.6522 18.6113 21.6522 16.7024 20.4749 15.5251L18.3535 17.6464C18.3557 17.6486 18.3564 17.6497 18.3565 17.6499C18.3567 17.6501 18.3568 17.6503 18.3569 17.6505C18.3572 17.6512 18.3579 17.6534 18.3579 17.6568C18.3579 17.6603 18.3572 17.6625 18.3569 17.6631C18.3568 17.6634 18.3567 17.6636 18.3565 17.6638C18.3564 17.664 18.3557 17.6651 18.3535 17.6673L20.4749 19.7886ZM19.7886 20.4749L20.4749 19.7886L18.3535 17.6673L17.6673 18.3535L19.7886 20.4749ZM15.5251 20.4749C16.7024 21.6522 18.6113 21.6522 19.7886 20.4749L17.6672 18.3535C17.6651 18.3557 17.664 18.3564 17.6638 18.3565C17.6635 18.3567 17.6634 18.3568 17.6631 18.3569C17.6625 18.3572 17.6603 18.3579 17.6568 18.3579C17.6534 18.3579 17.6512 18.3572 17.6505 18.3569C17.6503 18.3568 17.6501 18.3567 17.6499 18.3565C17.6497 18.3564 17.6486 18.3557 17.6464 18.3535L15.5251 20.4749ZM15.5 20.4853C15.5 20.4767 15.5006 20.4716 15.501 20.4694C15.5013 20.4673 15.5015 20.4671 15.5011 20.4683C15.5001 20.4715 15.4982 20.4754 15.496 20.4785C15.4941 20.4811 15.4936 20.481 15.496 20.4791C15.4986 20.477 15.5031 20.4742 15.5091 20.4717C15.5151 20.4692 15.5203 20.4681 15.5235 20.4677C15.5266 20.4673 15.5263 20.4678 15.5232 20.4672C15.5194 20.4666 15.5153 20.4652 15.5124 20.4637C15.5112 20.4631 15.5115 20.4631 15.5132 20.4644C15.515 20.4656 15.519 20.4688 15.5251 20.4749L17.6464 18.3535C15.7473 16.4544 12.5 17.7995 12.5 20.4853H15.5ZM12.4853 23.5C14.1503 23.5 15.5 22.1503 15.5 20.4853H12.5C12.5 20.4883 12.4997 20.4896 12.4997 20.4898C12.4996 20.4901 12.4996 20.4903 12.4995 20.4905C12.4992 20.4912 12.4981 20.4933 12.4957 20.4957C12.4933 20.4981 12.4912 20.4992 12.4905 20.4995C12.4903 20.4996 12.4901 20.4996 12.4898 20.4997C12.4896 20.4997 12.4883 20.5 12.4853 20.5V23.5ZM11.5147 23.5H12.4853V20.5H11.5147V23.5ZM8.5 20.4853C8.5 22.1503 9.84974 23.5 11.5147 23.5V20.5C11.5117 20.5 11.5104 20.4997 11.5102 20.4997C11.5099 20.4996 11.5097 20.4996 11.5095 20.4995C11.5088 20.4992 11.5067 20.4981 11.5043 20.4957C11.5019 20.4933 11.5008 20.4912 11.5005 20.4905C11.5004 20.4903 11.5004 20.4901 11.5003 20.4898C11.5003 20.4896 11.5 20.4883 11.5 20.4853H8.5ZM8.47486 20.4749C8.48094 20.4688 8.48501 20.4656 8.48674 20.4643C8.48848 20.4631 8.48877 20.463 8.4876 20.4637C8.4847 20.4652 8.48057 20.4666 8.47683 20.4672C8.47364 20.4678 8.47342 20.4673 8.47645 20.4677C8.47973 20.4681 8.4849 20.4692 8.49091 20.4717C8.49692 20.4742 8.50137 20.477 8.50396 20.4791C8.50636 20.481 8.50588 20.4811 8.50402 20.4785C8.50183 20.4754 8.49991 20.4715 8.49892 20.4683C8.49852 20.4671 8.49871 20.4673 8.49904 20.4694C8.49936 20.4716 8.5 20.4767 8.5 20.4853H11.5C11.5 17.7994 8.25271 16.4544 6.35354 18.3535L8.47486 20.4749ZM4.21139 20.4749C5.38871 21.6522 7.29753 21.6522 8.47486 20.4749L6.35354 18.3535C6.35143 18.3557 6.35027 18.3564 6.35009 18.3565C6.34983 18.3567 6.34967 18.3568 6.34943 18.3569C6.34875 18.3572 6.34655 18.3579 6.34312 18.3579C6.3397 18.3579 6.3375 18.3572 6.33682 18.3569C6.33658 18.3568 6.33642 18.3567 6.33616 18.3565C6.33598 18.3564 6.33482 18.3557 6.33271 18.3535L4.21139 20.4749ZM3.5251 19.7886L4.21139 20.4749L6.33271 18.3535L5.64642 17.6673L3.5251 19.7886ZM3.52511 15.5251C2.34779 16.7024 2.34778 18.6113 3.5251 19.7886L5.64642 17.6673C5.64431 17.6651 5.64355 17.664 5.64343 17.6638C5.64326 17.6636 5.64318 17.6634 5.64308 17.6631C5.64281 17.6625 5.64211 17.6603 5.64211 17.6568C5.64211 17.6534 5.64281 17.6512 5.64308 17.6505C5.64318 17.6503 5.64326 17.6501 5.64343 17.6499C5.64355 17.6497 5.64432 17.6486 5.64643 17.6464L3.52511 15.5251ZM3.51471 15.5C3.52331 15.5 3.52843 15.5006 3.53055 15.501C3.53268 15.5013 3.53289 15.5015 3.53164 15.5011C3.52852 15.5001 3.5246 15.4982 3.5215 15.496C3.51885 15.4941 3.51901 15.4936 3.52091 15.496C3.52295 15.4986 3.52581 15.5031 3.5283 15.5091C3.53078 15.5151 3.53191 15.5203 3.5323 15.5235C3.53265 15.5266 3.5322 15.5263 3.53275 15.5232C3.5334 15.5194 3.53481 15.5153 3.53631 15.5124C3.53692 15.5112 3.5369 15.5115 3.53563 15.5132C3.53436 15.515 3.53119 15.519 3.52511 15.5251L5.64643 17.6464C7.54557 15.7473 6.20055 12.5 3.51471 12.5V15.5ZM0.5 12.4853C0.5 14.1503 1.84973 15.5 3.51471 15.5V12.5C3.51172 12.5 3.51037 12.4997 3.51016 12.4997C3.50986 12.4996 3.50969 12.4996 3.50944 12.4995C3.50877 12.4992 3.50673 12.4981 3.50431 12.4957C3.50189 12.4933 3.50083 12.4912 3.50054 12.4906C3.50044 12.4903 3.50038 12.4901 3.50032 12.4898C3.50028 12.4896 3.5 12.4883 3.5 12.4853H0.5ZM0.5 11.5147V12.4853H3.5V11.5147H0.5ZM3.51472 8.5C1.84973 8.5 0.5 9.84974 0.5 11.5147H3.5C3.5 11.5117 3.50028 11.5104 3.50032 11.5102C3.50038 11.5099 3.50044 11.5097 3.50054 11.5094C3.50083 11.5088 3.50189 11.5067 3.50431 11.5043C3.50673 11.5019 3.50877 11.5008 3.50945 11.5005C3.50969 11.5004 3.50986 11.5004 3.51016 11.5003C3.51038 11.5003 3.51173 11.5 3.51472 11.5V8.5ZM3.52512 8.47487C3.5312 8.48095 3.53437 8.48502 3.53564 8.48675C3.53692 8.4885 3.53693 8.48878 3.53633 8.48761C3.53483 8.48471 3.53342 8.48057 3.53277 8.47684C3.53222 8.47365 3.53267 8.47342 3.53231 8.47646C3.53193 8.47974 3.5308 8.48491 3.52831 8.49092C3.52582 8.49692 3.52296 8.50138 3.52092 8.50397C3.51903 8.50637 3.51887 8.50588 3.52152 8.50402C3.52461 8.50184 3.52854 8.49991 3.53165 8.49892C3.5329 8.49852 3.53269 8.49871 3.53056 8.49904C3.52843 8.49936 3.52332 8.5 3.51472 8.5V11.5C6.20056 11.5 7.5456 8.25271 5.64644 6.35355L3.52512 8.47487ZM3.52512 4.21141C2.3478 5.38873 2.3478 7.29755 3.52512 8.47487L5.64644 6.35355C5.64433 6.35144 5.64357 6.35028 5.64345 6.3501C5.64328 6.34984 5.6432 6.34969 5.6431 6.34944C5.64282 6.34876 5.64213 6.34656 5.64213 6.34314C5.64213 6.33971 5.64282 6.33752 5.6431 6.33684C5.6432 6.33659 5.64328 6.33643 5.64345 6.33618C5.64357 6.336 5.64433 6.33484 5.64644 6.33273L3.52512 4.21141ZM4.21141 3.52512L3.52512 4.21141L5.64644 6.33273L6.33273 5.64644L4.21141 3.52512ZM8.47487 3.52512C7.29755 2.3478 5.38873 2.3478 4.21141 3.52512L6.33273 5.64644C6.33484 5.64433 6.33599 5.64357 6.33618 5.64345C6.33643 5.64328 6.33659 5.6432 6.33683 5.6431C6.33751 5.64282 6.33971 5.64213 6.34314 5.64213C6.34656 5.64213 6.34876 5.64282 6.34944 5.6431C6.34968 5.6432 6.34984 5.64328 6.3501 5.64345C6.35028 5.64357 6.35144 5.64433 6.35355 5.64644L8.47487 3.52512ZM8.5 3.51472C8.5 3.52332 8.49936 3.52844 8.49904 3.53056C8.49871 3.53269 8.49852 3.5329 8.49892 3.53165C8.49991 3.52854 8.50183 3.52462 8.50402 3.52152C8.50588 3.51887 8.50636 3.51903 8.50396 3.52092C8.50138 3.52297 8.49692 3.52583 8.49091 3.52832C8.48491 3.5308 8.47973 3.53193 8.47646 3.53232C8.47342 3.53267 8.47365 3.53222 8.47684 3.53278C8.48057 3.53342 8.48471 3.53483 8.48761 3.53633C8.48877 3.53694 8.48849 3.53692 8.48675 3.53564C8.48502 3.53437 8.48095 3.53121 8.47487 3.52512L6.35355 5.64644C8.25271 7.54561 11.5 6.20056 11.5 3.51472H8.5ZM11.5147 0.5C9.84973 0.5 8.5 1.84974 8.5 3.51472H11.5C11.5 3.51173 11.5003 3.51038 11.5003 3.51016C11.5004 3.50986 11.5004 3.50969 11.5005 3.50945C11.5008 3.50877 11.5019 3.50673 11.5043 3.50431C11.5067 3.50189 11.5088 3.50083 11.5094 3.50054C11.5097 3.50044 11.5099 3.50038 11.5102 3.50032C11.5104 3.50028 11.5117 3.5 11.5147 3.5V0.5ZM12.4853 0.5H11.5147V3.5H12.4853V0.5ZM10.5 12C10.5 11.1716 11.1716 10.5 12 10.5V7.5C9.51472 7.5 7.5 9.51472 7.5 12H10.5ZM12 13.5C11.1716 13.5 10.5 12.8284 10.5 12H7.5C7.5 14.4853 9.51472 16.5 12 16.5V13.5ZM13.5 12C13.5 12.8284 12.8284 13.5 12 13.5V16.5C14.4853 16.5 16.5 14.4853 16.5 12H13.5ZM12 10.5C12.8284 10.5 13.5 11.1716 13.5 12H16.5C16.5 9.51472 14.4853 7.5 12 7.5V10.5Z" fill="#000000" mask="url(#path-1-inside-1_232_7561)"/>
</g>
</g>
</svg>
